<svg xmlns="http://www.w3.org/2000/svg" width="145" height="30" viewBox="0 0 145 30">
    <g fill="#24D4A9" fill-rule="evenodd">
        <path d="M28.768 6.91c0-.24.04-.381.122-.426.08-.042.34-.065.775-.065v17.77c0 .138-.041.22-.121.244-.081.027-.341.04-.776.04V6.91zM43.985 11.165c0-.533-.06-1.04-.177-1.52a3.297 3.297 0 0 0-.6-1.265 2.83 2.83 0 0 0-1.127-.851c-.472-.206-1.062-.31-1.769-.31h-2.286v8.537h2.15c1.305 0 2.267-.411 2.883-1.238.618-.825.926-1.943.926-3.353zm-3.62-4.746c.854 0 1.57.13 2.15.388.58.257 1.05.602 1.4 1.032.356.43.61.932.765 1.507.153.577.229 1.183.229 1.82 0 1.479-.276 2.647-.828 3.506-.554.86-1.34 1.437-2.356 1.73.166.206.387.524.669.953.28.43.57.972.87 1.625.3.653.576 1.41.83 2.27.254.859.443 1.822.57 2.889.02.136.006.222-.04.257s-.16.06-.34.077h-.517c-.163-1.237-.39-2.32-.68-3.25a19.879 19.879 0 0 0-.885-2.36c-.298-.645-.58-1.154-.844-1.535-.263-.376-.456-.636-.584-.772-.09.017-.191.026-.299.026h-2.449v7.608c0 .137-.036.218-.109.243-.073.027-.336.04-.788.04V6.703c0-.033.008-.077.027-.128.036-.103.128-.156.271-.156h2.938zM58.487 23.648c0 .38-.01.61-.028.698-.017.085-.092.127-.217.127h-6.585V6.703c0-.033.009-.077.027-.128.036-.103.127-.156.273-.156h6.502c0 .344-.01.568-.028.671-.017.104-.072.156-.164.156h-5.713v6.936h5.333c0 .344-.01.565-.026.658-.02.096-.092.143-.219.143h-5.088v8.665h5.933zM72.93 14.44c0-2.509-.359-4.335-1.074-5.48-.718-1.143-1.846-1.715-3.387-1.715h-2.394v16.404h2.312c.58 0 1.142-.104 1.686-.31.545-.207 1.03-.632 1.456-1.277.426-.644.767-1.574 1.02-2.785.254-1.213.38-2.825.38-4.836zm-4.353-8.02c.871 0 1.633.15 2.285.451.653.302 1.203.775 1.647 1.42.443.643.78 1.478 1.005 2.5.228 1.024.341 2.248.341 3.675 0 2.15-.151 3.882-.449 5.197-.298 1.314-.703 2.33-1.211 3.044-.507.713-1.092 1.186-1.754 1.418a6.195 6.195 0 0 1-2.054.348h-3.21V6.833c0-.12.04-.22.121-.298.082-.076.26-.116.532-.116h2.747zM86.032 6.163c.797 0 1.467.107 2.013.32.542.217.816.462.816.737 0 .189-.054.37-.164.54a4.449 4.449 0 0 0-1.06-.553c-.4-.146-.89-.22-1.47-.22-.708 0-1.358.117-1.945.348-.592.232-1.102.666-1.538 1.303-.436.637-.77 1.513-1.007 2.63-.236 1.12-.354 2.554-.354 4.307 0 1.857.113 3.336.34 4.436.227 1.102.532 1.939.912 2.515.383.577.826.947 1.333 1.108a5.17 5.17 0 0 0 1.605.246c.4 0 .758-.042 1.075-.129.318-.085.593-.193.829-.323.238-.128.423-.266.558-.412.136-.145.232-.27.287-.374v-7.376h-3.184v-.516c0-.189.1-.284.3-.284h3.753v8.563a6.13 6.13 0 0 1-.352.439 3.417 3.417 0 0 1-.668.567c-.28.189-.64.354-1.074.49-.435.136-.962.206-1.578.206a5.896 5.896 0 0 1-2.014-.335c-.615-.224-1.147-.662-1.591-1.316-.442-.653-.793-1.576-1.048-2.772-.253-1.195-.379-2.764-.379-4.706 0-1.926.135-3.505.407-4.733.272-1.23.658-2.193 1.157-2.889.497-.696 1.091-1.173 1.78-1.432a6.437 6.437 0 0 1 2.26-.385M102.963 11.165c0-.533-.059-1.04-.175-1.52a3.325 3.325 0 0 0-.6-1.265 2.826 2.826 0 0 0-1.128-.851c-.472-.206-1.06-.31-1.77-.31h-2.285v8.537h2.15c1.306 0 2.268-.411 2.883-1.238.619-.825.925-1.943.925-3.353zM99.345 6.42c.854 0 1.57.13 2.15.388.58.257 1.047.602 1.402 1.032.353.43.607.932.762 1.507.153.577.23 1.183.23 1.82 0 1.479-.276 2.647-.83 3.506-.553.86-1.336 1.437-2.353 1.73.163.206.386.524.667.953.28.43.571.972.87 1.625.3.653.577 1.41.831 2.27.253.859.443 1.822.571 2.889.018.136.003.222-.042.257-.045.035-.16.06-.34.077h-.517c-.163-1.237-.39-2.32-.68-3.25a19.559 19.559 0 0 0-.884-2.36c-.298-.645-.58-1.154-.844-1.535-.263-.376-.457-.636-.584-.772-.092.017-.19.026-.299.026H97.005v7.608c0 .137-.036.218-.108.243-.073.027-.336.04-.79.04V6.703c0-.033.01-.077.028-.128.036-.103.127-.156.271-.156h2.94zM111.637 18.334h5.931l-1.658-5.673c-.165-.568-.324-1.123-.478-1.664a66.033 66.033 0 0 1-.707-2.694 6.553 6.553 0 0 1-.149-.748c-.02.155-.069.404-.15.748-.082.343-.181.743-.3 1.198-.118.458-.25.954-.394 1.496a95.49 95.49 0 0 1-.463 1.664l-1.632 5.673zm6.149.8h-6.367l-1.47 5.158a.279.279 0 0 1-.163.168.989.989 0 0 1-.326.04h-.203a2.67 2.67 0 0 1-.34-.027l5.359-18.079c0-.068.082-.103.245-.103.183 0 .298.024.353.076l5.387 17.823c.054.206-.054.31-.327.31h-.27c-.11 0-.21-.01-.3-.027l-1.578-5.338zM133.325 14.44c0-2.509-.357-4.335-1.074-5.48-.717-1.143-1.846-1.715-3.389-1.715h-2.392v16.404h2.31c.582 0 1.144-.104 1.69-.31.542-.207 1.029-.632 1.454-1.277.425-.644.766-1.574 1.02-2.785.254-1.213.381-2.825.381-4.836zm-4.354-8.02c.871 0 1.634.15 2.286.451.653.302 1.203.775 1.647 1.42.442.643.779 1.478 1.005 2.5.228 1.024.34 2.248.34 3.675 0 2.15-.148 3.882-.448 5.197-.3 1.314-.702 2.33-1.212 3.044-.507.713-1.09 1.186-1.754 1.418a6.182 6.182 0 0 1-2.055.348h-3.21V6.833c0-.12.042-.22.123-.298.082-.076.26-.116.53-.116h2.748zM13.401 15.632h6.993v3.405h-6.993v-3.405zm6.993-.826h-6.993V11.48h6.993v3.325zm.11-8.347c-.074.024-.11.107-.11.244v3.918h-6.993V6.42c-.435 0-.693.013-.775.04-.082.024-.123.107-.123.244v17.77c.437 0 .694-.013.776-.04.082-.025.122-.105.122-.243v-4.292h6.993v4.575c.436 0 .693-.013.776-.04.08-.025.122-.105.122-.243V6.42c-.454 0-.717.012-.789.039z"/>
        <path d="M.601 29.261h143.775V1.331H.6v27.93zm144.376.6H0V.732h144.977v29.13z"/>
    </g>
</svg>
